<svg width="23" height="23" viewBox="0 0 23 23" fill="none" xmlns="http://www.w3.org/2000/svg">
<path id="Vector" d="M21.8591 17.4434L16.7779 12.8234C16.5377 12.6051 16.222 12.4886 15.8976 12.4987C15.5732 12.5087 15.2654 12.6444 15.0391 12.8771L12.0479 15.9534C11.3279 15.8159 9.88035 15.3646 8.39035 13.8784C6.90035 12.3871 6.4491 10.9359 6.31535 10.2209L9.3891 7.22837C9.62212 7.00228 9.75802 6.69439 9.76805 6.36987C9.77809 6.04536 9.66146 5.72967 9.44285 5.48962L4.8241 0.409615C4.60541 0.168811 4.30145 0.0227454 3.97679 0.00243974C3.65214 -0.017866 3.33235 0.089188 3.08535 0.300865L0.372853 2.62712C0.156741 2.84401 0.0277519 3.13268 0.0103525 3.43836C-0.00839755 3.75086 -0.365897 11.1534 5.3741 16.8959C10.3816 21.9021 16.6541 22.2684 18.3816 22.2684C18.6341 22.2684 18.7891 22.2609 18.8304 22.2584C19.136 22.2413 19.4245 22.1117 19.6404 21.8946L21.9654 19.1809C22.1779 18.9347 22.2857 18.6151 22.2659 18.2905C22.246 17.9659 22.1 17.6618 21.8591 17.4434Z" fill="black"/>
</svg>
